<?xml version="1.0" encoding="utf-8"?>
<!-- Generator: Adobe Illustrator 16.0.3, SVG Export Plug-In . SVG Version: 6.00 Build 0)  -->
<!DOCTYPE svg PUBLIC "-//W3C//DTD SVG 1.1//EN" "http://www.w3.org/Graphics/SVG/1.1/DTD/svg11.dtd">
<svg version="1.1" id="圖層_1" xmlns="http://www.w3.org/2000/svg" xmlns:xlink="http://www.w3.org/1999/xlink" x="0px" y="0px"
	 width="50px" height="50px" viewBox="0 0 50 50" enable-background="new 0 0 50 50" xml:space="preserve">
<g>
	<g>
		<path fill="#FFFFFF" d="M25.502,38.428c0-0.273-0.048-0.498-0.376-0.498c-0.329,0-1.25,0-1.25,0v1.186c0,0,1.194,0,1.468,0
			C25.523,39.115,25.502,38.701,25.502,38.428z"/>
		<path fill="#FFFFFF" d="M25.001,0C11.193,0,0,11.195,0,25c0,13.808,11.193,25,25.001,25C38.808,50,50,38.809,50,25
			C50,11.195,38.808,0,25.001,0z M25.018,18.794c2.737,0.408,6.057,1.886,8.71,1.216c1.323-0.334,2.334-0.9,3.076-1.336l-1.641,6.88
			c-1.059,0.238-2.74,0.438-4.12-0.184c-2.189-0.986-4.524-3.985-7.395-4.491c-2.329-0.411-5.037,0.334-5.749,0.884
			c0,0,5.466-1.17,7.939,1.251c2.467,2.422,4.579,4.683,6.3,5.044c1.031,0.211,1.795,0.107,2.515-0.037l-1.801,8.092
			c0,0-4.931,0.273-7.342-3.51c-2.411-3.779-2.596-4.947-3.125-5.971c-0.875-1.703-3.507-2.634-5.699-1.753
			c-2.192,0.877-3.232,3.232-3.177,5.148h2.575v6.521h3.616l2.246,4.617v-4.617c0,0,2.577,0,3.563,0
			c0.983,0,1.969,0.613,1.969,2.205c0,1.59-1.079,1.756-1.079,1.756l1.739,1.645v-5.605h5.335l-0.418,1.439h-2.972v0.797h2.748
			l-0.426,1.566h-2.322v0.814c0,0,4.96,0.008,5.671,0c0.526-0.008,0.595-0.568-0.425-0.789c-0.708-0.154-2.212-0.51-1.906-2.059
			c0.386-1.949,2.052-1.746,2.96-1.787c0.129-0.008,2.386-0.008,2.386-0.008l-0.547,1.408c0,0-2.085,0-2.468,0
			c-0.67,0-0.897,0.838,0,0.99c2.09,0.35,2.509,1.104,2.437,1.887c-0.13,1.43-1.341,1.717-2.218,1.717c-0.875,0-10.473,0-10.473,0
			l-1.626-1.689v1.689h-3.737l-0.438-0.922h-1.699v0.922h-1.917v-5.977h-3.262v-4.162h-2.546c0,0,0.22-3.07,0.603-5.096
			c0.384-2.027,1.808-6.849,9.207-9.7c7.396-2.851,16.076-3.454,19.638-11.781l-2.547,11.311c-0.881,0.738-2.404,1.628-3.943,1.784
			c-1.505,0.152-3.068,0.01-4.54-0.296c-1.489-0.311-2.824-0.813-4.442-0.729c-2.559,0.131-5.019,0.961-7.178,2.506
			C17.074,20.386,22.197,18.381,25.018,18.794z"/>
		<polygon fill="#FFFFFF" points="18.029,37.775 18.029,39.908 19.171,39.908 		"/>
	</g>
</g>
</svg>
