<?xml version="1.0" encoding="utf-8"?>
<!-- Generator: Adobe Illustrator 16.0.3, SVG Export Plug-In . SVG Version: 6.00 Build 0)  -->
<!DOCTYPE svg PUBLIC "-//W3C//DTD SVG 1.1//EN" "http://www.w3.org/Graphics/SVG/1.1/DTD/svg11.dtd">
<svg version="1.1" id="圖層_1" xmlns="http://www.w3.org/2000/svg" xmlns:xlink="http://www.w3.org/1999/xlink" x="0px" y="0px"
	 width="50px" height="50px" viewBox="0 0 50 50" enable-background="new 0 0 50 50" xml:space="preserve">
<g>
	<g>
		<path fill="#FFFFFF" d="M28.332,28.989c-0.602,0-1.164,0.326-1.695,0.975v-3.945h-1.633v12.088h1.633v-0.873
			c0.547,0.678,1.109,1,1.695,1c0.648,0,1.09-0.342,1.303-1.014c0.111-0.383,0.166-0.982,0.166-1.813v-3.59
			c0-0.854-0.055-1.445-0.166-1.814C29.418,29.333,28.98,28.989,28.332,28.989z M28.166,35.532c0,0.816-0.24,1.217-0.711,1.217
			c-0.271,0-0.541-0.131-0.818-0.4v-5.496c0.277-0.266,0.547-0.395,0.818-0.395c0.471,0,0.711,0.416,0.711,1.232V35.532z"/>
		<path fill="#FFFFFF" d="M21.953,35.983c-0.364,0.512-0.703,0.766-1.035,0.766c-0.215,0-0.342-0.131-0.383-0.385
			c-0.014-0.051-0.014-0.25-0.014-0.635v-6.629h-1.638v7.121c0,0.635,0.059,1.066,0.143,1.34c0.167,0.457,0.534,0.672,1.059,0.672
			c0.599,0,1.221-0.365,1.868-1.111v0.984h1.638v-9.006h-1.638V35.983z"/>
		<path fill="#FFFFFF" d="M33.447,28.989c-0.834,0-1.484,0.307-1.959,0.922c-0.346,0.457-0.506,1.158-0.506,2.125v3.152
			c0,0.957,0.18,1.668,0.527,2.117c0.473,0.617,1.123,0.928,1.977,0.928c0.855,0,1.525-0.326,1.98-0.977
			c0.197-0.295,0.326-0.619,0.383-0.98c0.01-0.162,0.033-0.527,0.033-1.051v-0.238h-1.668c0,0.652-0.023,1.018-0.035,1.107
			c-0.092,0.436-0.328,0.654-0.732,0.654c-0.561,0-0.834-0.418-0.834-1.252v-1.598h3.27v-1.863c0-0.967-0.164-1.668-0.506-2.125
			C34.922,29.296,34.268,28.989,33.447,28.989z M34.248,32.542h-1.635V31.71c0-0.836,0.273-1.252,0.82-1.252
			c0.541,0,0.814,0.416,0.814,1.252V32.542z"/>
		<polygon fill="#FFFFFF" points="19.098,26.019 13.399,26.019 13.399,27.718 15.322,27.718 15.322,38.106 17.142,38.106 
			17.142,27.718 19.098,27.718 		"/>
		<path fill="#FFFFFF" d="M24.669,19.001c0.526,0,0.783-0.418,0.783-1.262v-3.828c0-0.842-0.256-1.264-0.783-1.264
			c-0.538,0-0.792,0.418-0.792,1.264v3.828C23.877,18.583,24.131,19.001,24.669,19.001z"/>
		<path fill="#FFFFFF" d="M25,0.063c-13.809,0-25,11.164-25,24.938c0,13.771,11.191,24.936,25,24.936c13.805,0,25-11.164,25-24.936
			C50,11.228,38.805,0.063,25,0.063z M28.375,11.272h1.648v6.703c0,0.387,0,0.588,0.02,0.641c0.035,0.254,0.166,0.389,0.389,0.389
			c0.33,0,0.678-0.258,1.043-0.773v-6.959h1.65v9.102h-1.65v-0.99c-0.662,0.754-1.289,1.119-1.889,1.119
			c-0.529,0-0.898-0.219-1.064-0.68c-0.094-0.273-0.146-0.709-0.146-1.35V11.272z M24.669,11.163c0.822,0,1.464,0.313,1.923,0.936
			c0.348,0.459,0.514,1.172,0.514,2.141v3.189c0,0.971-0.166,1.689-0.514,2.143c-0.459,0.619-1.101,0.932-1.923,0.932
			c-0.827,0-1.472-0.313-1.929-0.932c-0.351-0.453-0.513-1.172-0.513-2.143v-3.189c0-0.969,0.162-1.682,0.513-2.141
			C23.197,11.476,23.842,11.163,24.669,11.163z M18.168,8.161l1.298,4.797l1.251-4.797h1.852l-2.204,7.268v4.945h-1.829v-4.945
			c-0.169-0.875-0.534-2.16-1.123-3.863c-0.384-1.133-0.788-2.273-1.176-3.404H18.168z M38.164,33.302
			c0,2.168-0.268,4.34-0.268,4.34s-0.264,1.844-1.07,2.656c-1.025,1.066-2.178,1.072-2.705,1.135
			c-3.773,0.27-9.437,0.279-9.437,0.279s-7.015-0.063-9.177-0.268c-0.596-0.113-1.939-0.08-2.968-1.146
			c-0.809-0.813-1.071-2.656-1.071-2.656s-0.271-2.172-0.271-4.34v-2.035c0-2.166,0.271-4.334,0.271-4.334s0.263-1.848,1.071-2.662
			c1.028-1.066,2.173-1.07,2.701-1.135c3.776-0.268,9.434-0.268,9.434-0.268h0.014c0,0,5.659,0,9.433,0.268
			c0.527,0.064,1.68,0.064,2.705,1.135c0.807,0.814,1.07,2.662,1.07,2.662s0.268,2.168,0.268,4.334V33.302z"/>
	</g>
</g>
</svg>
