<?xml version="1.0" encoding="utf-8"?>
<!-- Generator: Adobe Illustrator 16.0.3, SVG Export Plug-In . SVG Version: 6.00 Build 0)  -->
<!DOCTYPE svg PUBLIC "-//W3C//DTD SVG 1.1//EN" "http://www.w3.org/Graphics/SVG/1.1/DTD/svg11.dtd">
<svg version="1.1" id="圖層_1" xmlns="http://www.w3.org/2000/svg" xmlns:xlink="http://www.w3.org/1999/xlink" x="0px" y="0px"
	 width="50px" height="50px" viewBox="0 0 50 50" enable-background="new 0 0 50 50" xml:space="preserve">
<path fill="#FFFFFF" d="M25,0.001C11.193,0.001,0,11.195,0,25c0,13.809,11.193,24.999,25,24.999c13.807,0,25-11.19,25-24.999
	C50,11.195,38.807,0.001,25,0.001z M34.539,12.731l-3.459,0.003c-2.711,0-3.234,1.289-3.234,3.18v4.167h6.465l-0.004,6.53h-6.461
	v16.757H21.1V26.611h-5.638v-6.53H21.1v-4.813c0-5.591,3.415-8.633,8.398-8.633l5.041,0.008V12.731L34.539,12.731z"/>
</svg>
