<?xml version="1.0" encoding="utf-8"?>
<!-- Generator: Adobe Illustrator 16.0.3, SVG Export Plug-In . SVG Version: 6.00 Build 0)  -->
<!DOCTYPE svg PUBLIC "-//W3C//DTD SVG 1.1//EN" "http://www.w3.org/Graphics/SVG/1.1/DTD/svg11.dtd">
<svg version="1.1" id="圖層_1" xmlns="http://www.w3.org/2000/svg" xmlns:xlink="http://www.w3.org/1999/xlink" x="0px" y="0px"
	 width="50px" height="50px" viewBox="0 0 50 50" enable-background="new 0 0 50 50" xml:space="preserve">
<path fill="#FFFFFF" d="M39.029,36.781v-9.76c0-5.228-2.791-7.662-6.512-7.662c-3.004,0-4.352,1.653-5.1,2.813v-2.413h-5.659
	c0.076,1.599,0,17.022,0,17.022h5.659v-9.506c0-0.507,0.035-1.015,0.186-1.38c0.41-1.017,1.34-2.068,2.902-2.068
	c2.049,0,2.865,1.56,2.865,3.849v9.108h5.658V36.781z M15.799,17.436c1.973,0,3.201-1.31,3.201-2.943
	c-0.035-1.667-1.229-2.939-3.163-2.939c-1.937,0-3.2,1.27-3.2,2.939c0,1.634,1.227,2.943,3.127,2.943H15.799z M24.999,50
	C11.192,50,0,38.81,0,25.001C0,11.194,11.192,0,24.999,0C38.807,0,50,11.194,50,25.001C50,38.81,38.807,50,24.999,50z
	 M18.627,36.781V19.759H12.97v17.022H18.627z"/>
</svg>
